# Blender v2.79 (sub 0) OBJ File: 'pebble1.blend'
# www.blender.org
mtllib pebble1.mtl
o Icosphere_Icosphere.001
v 0.256280 -0.500665 0.133466
v 1.004127 -0.676195 1.169181
v -0.282827 -0.338916 1.132555
v -0.997491 -0.131516 -0.296931
v 0.029383 -0.220156 -1.025901
v 1.401554 -0.040813 -0.564128
v 0.035069 0.391526 1.030783
v -0.923807 0.548404 0.540104
v -0.537897 0.621330 -0.651299
v 0.875092 0.545852 -1.038222
v 1.661583 0.656877 0.570331
v 0.333471 0.652408 0.093017
v -0.077473 -0.722525 0.526286
v 0.629478 -0.604262 0.479112
v 0.266279 -0.773876 1.205883
v 1.376080 -0.493343 0.093548
v 0.922195 -0.456041 -0.060736
v -0.346853 -0.412349 -0.026941
v -0.902763 -0.285709 0.478910
v 0.237010 -0.342651 -0.291922
v -0.443637 -0.140530 -0.694361
v 0.774615 -0.319909 -0.853457
v 1.410137 0.138221 0.361259
v 2.081146 0.321545 -0.294233
v -0.262367 0.215617 1.495594
v 0.649567 -0.193347 1.370109
v -1.152064 0.187058 0.157013
v -1.161635 0.382917 1.135069
v -0.346412 0.297023 -1.377780
v -0.877497 0.108553 -0.545444
v 1.693303 0.391301 -0.866597
v 0.367499 0.238428 -1.482045
v 1.200434 0.465430 0.859683
v -0.564136 0.798350 0.956243
v -0.914457 0.503731 -0.165410
v 0.042806 0.711700 -1.453775
v 1.669917 0.774356 -0.392564
v 0.061603 0.795551 0.665931
v 1.193358 0.661204 0.490779
v -0.437877 0.840307 0.325557
v -0.147353 0.896138 -0.533101
v 0.644679 0.582950 -0.470483
v 0.138654 -0.789033 0.394378
v 0.951919 -0.665586 0.652422
v 0.064721 -0.439729 1.229338
v 1.256679 -0.478503 0.528906
v 1.111730 -0.276221 -0.510283
v -0.129966 -0.415271 0.102126
v -0.890696 -0.166619 0.130507
v 0.405983 -0.376923 -0.080030
v -0.087412 -0.105191 -0.700440
v 1.230142 -0.024305 -0.723123
v 1.281242 -0.505688 0.835341
v 1.998668 0.548757 0.027282
v -0.410777 -0.083112 1.064975
v 0.374160 0.318661 1.376851
v -1.048972 0.003162 -0.008614
v -1.142915 0.459247 0.810186
v -0.118212 0.024642 -1.232588
v -0.821056 0.222925 -0.595384
v 1.676470 0.052737 -0.609100
v 0.809742 0.612065 -1.445758
v 0.749356 0.515951 1.007665
v -0.758007 0.537809 0.843336
v -0.627433 0.558703 -0.372824
v 0.344880 0.583105 -1.348311
v 1.723755 0.749325 -0.011131
v 0.195773 0.672429 0.759334
v 0.772631 0.739882 0.177867
v -0.613725 0.717655 0.349257
v -0.362772 0.621689 -0.672967
v 0.752123 0.430736 -0.670233
v -0.163175 -0.552301 0.788444
v 0.419238 -0.548343 0.363982
v 0.577470 -0.711251 1.221891
v 1.461731 -0.250226 -0.533863
v 0.459148 -0.461548 0.019169
v -0.771859 -0.129103 -0.194518
v -0.695761 -0.303118 0.895688
v 0.251903 -0.217831 -0.731771
v -0.739234 -0.216988 -0.257879
v 0.499369 -0.179729 -0.925836
v 1.747928 0.509606 0.250224
v 1.856416 0.089462 -0.505749
v -0.249884 0.305093 1.325409
v 0.671113 -0.532035 1.328662
v -1.074828 0.304014 0.306429
v -0.614943 0.008968 1.248582
v -0.468721 0.426925 -1.029447
v -0.882165 0.012357 -0.432868
v 1.305932 0.553000 -0.973279
v 0.290048 -0.013796 -1.489222
v 1.414340 0.664233 0.608959
v -0.365557 0.608210 1.049570
v -0.898056 0.558087 0.109322
v -0.299807 0.641735 -1.012225
v 1.299595 0.642214 -0.553292
v 0.220096 0.745328 0.406942
v 1.421921 0.822278 0.514714
v -0.058884 0.582566 0.153992
v -0.008471 0.810134 -0.040235
v 0.617685 0.716516 -0.066796
v 0.974600 0.652457 -0.010538
v 1.561524 0.723290 -0.042577
v 1.122128 0.654851 -0.417602
v 0.181793 0.673372 -0.604354
v 0.249380 0.754137 -0.890526
v -0.109881 0.761271 -0.905431
v -0.390307 0.773713 -0.021268
v -0.670102 0.627931 -0.219666
v -0.573768 0.673436 0.095638
v -0.064328 0.895466 0.447293
v -0.585599 0.845481 0.715325
v -0.372890 0.711971 0.901286
v 0.742849 0.805326 0.654827
v 0.733315 0.685863 0.927586
v 1.210859 0.713776 0.713464
v 1.944560 0.643341 -0.351470
v 1.885010 0.444972 -0.546839
v 1.780630 0.642839 -0.656106
v 0.175844 0.497804 -1.646978
v -0.017686 0.211898 -1.539746
v -0.159263 0.475400 -1.497590
v -0.998890 0.356997 -0.393148
v -0.995052 0.350673 -0.247169
v -1.045110 0.447285 -0.073047
v -0.892865 0.626207 1.127221
v -0.818493 0.363325 1.241945
v -0.495699 0.559111 1.160396
v 0.929052 0.201688 1.137178
v 1.247362 -0.120859 1.053245
v 1.234172 0.351972 0.625264
v 1.150880 0.188146 -1.329689
v 1.185308 -0.011173 -0.916612
v 0.716753 -0.008788 -1.226585
v -0.662120 0.164153 -0.987271
v -0.434389 0.032985 -1.071159
v -0.755580 -0.078768 -0.707782
v -1.171224 0.170827 0.634539
v -1.194816 -0.085982 0.433751
v -0.983205 -0.144643 0.771614
v 0.176439 -0.080255 1.399221
v 0.003053 -0.322589 1.369649
v 0.441836 -0.517381 1.437662
v 1.577152 0.271154 -0.026393
v 1.465886 -0.182505 0.346502
v 1.635836 -0.036144 -0.015576
v 0.952122 -0.165757 -0.349048
v 0.674472 -0.501766 -0.165370
v 0.569526 -0.311452 -0.627743
v 0.040526 -0.243578 -0.558815
v -0.087930 -0.390916 -0.203719
v -0.461420 -0.297973 -0.332183
v -0.614396 -0.452537 0.208365
v -0.248924 -0.633795 0.259406
v -0.597011 -0.464853 0.598019
v 1.159880 -0.325876 -0.278926
v 1.019633 -0.534573 0.272596
v 0.787366 -0.461644 0.094844
v 0.136046 -0.845756 0.894719
v 0.351068 -0.678451 0.533033
v 0.445559 -0.763615 0.797525
vn 0.5264 -0.6784 -0.5125
vn 0.5017 -0.8624 -0.0684
vn -0.0824 -0.6500 -0.7555
vn -0.1340 -0.8137 -0.5656
vn -0.1754 -0.7934 -0.5829
vn 0.4179 -0.9014 -0.1135
vn -0.2275 0.1408 0.9636
vn -0.7802 -0.6085 0.1450
vn -0.8166 -0.5698 -0.0918
vn 0.2472 -0.8996 -0.3600
vn 0.5392 0.4795 0.6924
vn 0.6951 0.4873 0.5285
vn -0.8639 0.3793 -0.3314
vn -0.4167 -0.7199 -0.5551
vn 0.2917 -0.9406 -0.1736
vn -0.1034 0.7211 0.6850
vn -0.3557 0.9068 0.2262
vn 0.0261 0.9735 0.2273
vn -0.0904 0.9587 0.2697
vn 0.5279 0.8282 0.1881
vn 0.2811 0.9495 -0.1392
vn -0.1179 0.9924 0.0341
vn -0.1867 0.9252 -0.3304
vn 0.2630 0.9211 -0.2872
vn 0.1012 0.9510 0.2923
vn -0.4382 0.8761 -0.2012
vn -0.0836 0.9774 0.1941
vn -0.4590 0.8884 -0.0054
vn -0.3367 0.9273 -0.1634
vn 0.1350 0.6789 -0.7217
vn -0.1263 0.9901 -0.0610
vn 0.4719 0.7332 0.4897
vn -0.0173 0.9795 -0.2006
vn -0.0066 0.9161 0.4010
vn 0.4932 0.4259 0.7585
vn 0.9222 0.3851 -0.0356
vn 0.8201 0.2572 -0.5111
vn 0.4164 0.4941 -0.7632
vn 0.3382 -0.3142 -0.8871
vn 0.1626 -0.4411 -0.8826
vn -0.7505 0.4881 -0.4455
vn -0.7288 0.0619 -0.6819
vn -0.8974 -0.4412 0.0045
vn -0.8851 0.4541 0.1021
vn -0.6628 0.7366 0.1349
vn -0.2648 0.3218 0.9090
vn 0.4903 0.7561 0.4335
vn 0.4253 0.2172 0.8786
vn 0.4388 0.2054 0.8748
vn 0.6198 -0.3545 0.7001
vn 0.4243 0.5340 -0.7313
vn 0.5953 -0.7031 -0.3889
vn -0.2312 -0.7646 -0.6017
vn -0.7539 0.4834 -0.4450
vn -0.5486 -0.5493 -0.6304
vn -0.1745 -0.9430 -0.2834
vn -0.8261 0.5634 -0.0140
vn -0.9922 0.1191 -0.0358
vn -0.5456 -0.8037 0.2374
vn 0.5696 0.7096 0.4148
vn 0.0907 -0.1843 0.9787
vn 0.1060 -0.7056 0.7006
vn 0.7507 -0.6531 0.0995
vn 0.8923 0.1353 0.4308
vn 0.8585 -0.5066 -0.0791
vn -0.7732 -0.4050 -0.4880
vn 0.3907 -0.6687 -0.6327
vn -0.1882 -0.9431 -0.2740
vn -0.1085 -0.9554 -0.2748
vn 0.0369 -0.9277 -0.3716
vn -0.5160 -0.8476 -0.1239
vn -0.3289 -0.7950 -0.5097
vn -0.3254 -0.7986 -0.5063
vn -0.3544 -0.8329 0.4250
vn -0.0802 -0.9257 -0.3697
vn -0.0790 -0.9255 -0.3703
vn -0.0476 -0.9299 -0.3647
vn -0.7212 -0.6645 0.1957
vn 0.1009 -0.9245 -0.3677
vn 0.0544 -0.9052 -0.4216
vn 0.1939 -0.9791 0.0605
vn 0.2054 -0.9770 0.0567
vn 0.0784 -0.9965 -0.0284
vn 0.2847 -0.9533 0.1010
vn 0.1370 -0.9276 -0.3476
vn 0.1751 -0.9172 -0.3579
vn -0.3563 -0.8445 0.3998
vn -0.6922 -0.5275 0.4925
vn -0.7592 -0.4882 0.4305
vn 0.0067 -0.9995 -0.0302
vn 0.0545 -0.9698 -0.2378
vn 0.0529 -0.9698 -0.2380
vn 0.7285 -0.2895 0.6209
vn -0.0191 -0.9335 -0.3581
vn -0.0213 -0.9344 -0.3556
vn -0.0547 -0.1582 -0.9859
vn 0.0574 -0.9736 -0.2209
vn 0.2730 -0.9274 -0.2559
vn -0.5594 -0.7920 0.2447
vn -0.3343 -0.8702 0.3619
vn -0.3142 -0.8519 0.4190
vn -0.5041 -0.8636 -0.0048
vn -0.4433 -0.8963 -0.0085
vn -0.4456 -0.8952 -0.0114
vn 0.0538 -0.9940 -0.0951
vn -0.6384 -0.7025 -0.3145
vn -0.6566 -0.7065 -0.2642
vn -0.3520 -0.8519 -0.3876
vn 0.0526 -0.5711 0.8192
vn -0.3156 -0.6292 0.7102
vn -0.0820 -0.9125 -0.4007
vn -0.0858 -0.9089 -0.4081
vn -0.1300 -0.9435 -0.3048
vn -0.2881 -0.9307 0.2254
vn -0.3138 -0.8051 -0.5033
vn 0.0560 -0.6884 -0.7232
vn -0.3684 -0.8793 -0.3018
vn -0.1491 -0.9170 -0.3701
vn 0.0998 -0.9927 -0.0677
vn 0.2030 -0.9541 0.2202
vn 0.5736 -0.7034 -0.4197
vn -0.2398 -0.9157 -0.3225
vn 0.4556 -0.6897 -0.5628
vn -0.7572 -0.1757 -0.6292
vn 0.5282 -0.8460 0.0727
vn 0.6629 -0.7408 0.1085
vn 0.6454 -0.7578 0.0962
vn 0.1542 -0.0978 -0.9832
vn 0.4567 0.1183 0.8817
vn 0.8601 0.1810 0.4769
vn 0.8687 -0.4385 0.2305
vn 0.5272 -0.7090 0.4684
vn 0.4710 -0.7908 0.3909
vn 0.3872 -0.7032 0.5963
vn 0.4235 -0.0834 0.9020
vn 0.3114 -0.6012 0.7359
vn 0.1467 -0.5617 0.8142
vn 0.0951 0.1444 0.9849
vn -0.1568 -0.0083 0.9876
vn -0.3419 -0.4904 0.8016
vn -0.0412 0.9688 0.2444
vn -0.0839 0.0972 0.9917
vn 0.0668 0.0228 0.9975
vn -0.5321 -0.5950 0.6024
vn -0.5674 -0.5480 0.6146
vn -0.4281 -0.6261 0.6517
vn -0.8774 -0.4355 0.2013
vn -0.8326 -0.2916 0.4708
vn -0.5736 -0.7884 0.2223
vn -0.6544 0.6932 -0.3021
vn -0.9575 0.2127 -0.1950
vn -0.9928 0.1157 -0.0300
vn -0.8970 -0.3169 -0.3080
vn -0.7794 -0.6063 -0.1579
vn -0.0971 -0.6413 -0.7611
vn -0.8751 -0.1802 -0.4492
vn -0.5455 -0.5337 -0.6463
vn -0.1593 -0.8952 -0.4162
vn -0.7739 0.4945 -0.3958
vn -0.7708 0.5050 -0.3884
vn -0.8802 0.2614 -0.3962
vn 0.5205 -0.1358 -0.8430
vn 0.2272 -0.9080 -0.3519
vn 0.1505 -0.9318 -0.3303
vn 0.1076 -0.6369 -0.7634
vn 0.2839 -0.8541 -0.4358
vn 0.4076 -0.6693 -0.6213
vn -0.0415 0.9851 0.1667
vn 0.6661 0.3567 -0.6550
vn 0.1820 -0.1207 -0.9759
vn 0.8223 -0.4567 0.3394
vn 0.6207 -0.3208 0.7154
vn 0.0397 -0.9036 0.4265
vn 0.8114 -0.4718 0.3451
vn 0.6631 0.5124 0.5457
vn 0.8871 0.3231 0.3296
vn -0.1504 0.9273 0.3427
vn 0.4269 0.5423 0.7236
vn 0.3191 0.5113 0.7980
vn 0.3217 0.6662 0.6729
vn 0.2890 0.7023 0.6506
vn 0.4039 0.6952 0.5946
vn 0.0480 0.6563 0.7530
vn -0.0094 0.3977 0.9175
vn -0.1833 0.6200 0.7629
vn -0.2100 0.9663 0.1486
vn -0.1566 0.9194 -0.3607
vn -0.5899 0.6478 -0.4820
vn -0.4761 0.8676 -0.1432
vn -0.7304 0.6559 0.1904
vn -0.8337 0.5510 -0.0374
vn -0.5488 0.7805 -0.2994
vn -0.8856 -0.4645 0.0032
vn -0.9404 0.0990 -0.3253
vn -0.8164 0.5611 -0.1363
vn -0.3109 0.6431 -0.6998
vn -0.4270 0.8239 -0.3725
vn -0.6553 0.6359 -0.4077
vn -0.7030 0.5852 -0.4041
vn -0.6945 0.5802 -0.4254
vn -0.3845 0.4755 -0.7912
vn -0.4023 -0.0701 -0.9128
vn -0.4616 -0.1071 -0.8806
vn -0.0269 0.9860 0.1645
vn -0.1060 0.9704 -0.2172
vn 0.4802 0.7334 -0.4812
vn -0.1034 0.8719 -0.4786
vn -0.0458 0.9770 -0.2082
vn 0.0151 0.9781 -0.2075
vn 0.4470 0.8612 -0.2420
vn 0.8629 0.1986 -0.4647
vn 0.8366 0.1504 -0.5268
vn 0.5616 0.8058 0.1882
vn 0.5741 0.8099 0.1202
vn 0.4307 0.9025 -0.0016
vn -0.5592 0.8156 -0.1486
vn 0.4932 0.4280 0.7574
vn 0.1481 0.5013 0.8525
vn 0.2153 0.9465 -0.2404
vn 0.1271 0.9069 0.4017
vn 0.3390 0.4667 0.8169
vn -0.1245 0.9383 -0.3227
vn -0.0478 0.9892 -0.1387
vn 0.2645 0.9575 -0.1149
vn 0.2134 0.7274 0.6522
vn 0.1949 0.8081 0.5558
vn 0.3332 0.5497 0.7661
vn 0.0386 0.9171 0.3969
vn 0.1508 0.8767 0.4569
vn 0.4397 0.8880 0.1345
vn -0.2165 0.9121 -0.3482
vn 0.2508 0.6643 -0.7041
vn 0.4769 0.8703 0.1231
vn -0.5775 0.7840 -0.2277
vn -0.3354 0.9177 -0.2128
vn -0.4835 0.8753 -0.0092
vn -0.5754 0.7850 -0.2296
vn -0.4713 0.8818 0.0167
vn -0.4515 0.8922 0.0092
vn 0.0028 0.6488 0.7609
vn -0.0246 0.6521 0.7577
vn 0.5324 0.8418 -0.0886
vn -0.6631 0.6800 -0.3130
vn -0.5140 0.8566 -0.0448
vn 0.0054 0.9982 0.0600
vn 0.5055 0.8263 -0.2484
vn 0.0078 0.9619 0.2733
vn 0.0233 0.9962 -0.0836
vn 0.1445 0.8025 0.5789
vn 0.1373 0.9723 -0.1894
vn 0.5586 0.8294 -0.0127
vn -0.0488 0.7816 -0.6219
vn -0.2511 0.8768 -0.4101
vn -0.3847 0.9097 0.1560
vn -0.1437 0.9885 -0.0463
vn -0.1218 0.9918 -0.0383
vn -0.2158 0.9735 0.0752
vn -0.2016 0.9789 0.0342
vn 0.2060 0.9532 -0.2215
vn 0.2135 0.9317 -0.2940
vn -0.5343 0.7991 -0.2758
vn -0.1169 0.9724 -0.2020
vn -0.1746 0.9806 0.0890
vn 0.5997 0.7584 -0.2553
vn 0.5855 0.7919 -0.1737
vn 0.4480 0.8641 -0.2294
vn -0.6001 0.6831 -0.4162
vn -0.6583 0.6000 -0.4546
vn -0.4807 0.7410 -0.4689
vn -0.5774 0.7836 -0.2293
vn -0.8845 0.4574 -0.0918
vn -0.8249 0.5365 0.1784
vn -0.2868 0.3607 0.8875
vn -0.2843 0.3866 0.8773
vn 0.3246 0.4281 0.8434
vn 0.7495 -0.1352 -0.6480
vn 0.5144 -0.1392 -0.8462
vn 0.8231 -0.3691 -0.4315
vn 0.1493 -0.0177 -0.9886
vn -0.4238 -0.7051 -0.5685
vn -0.4569 -0.6852 -0.5672
vn -0.9560 -0.2023 -0.2125
vn -0.9244 -0.1077 -0.3658
vn -0.9027 -0.1394 -0.4071
vn -0.3018 -0.1558 0.9405
vn 0.7046 0.4155 0.5752
vn -0.4510 -0.6530 0.6084
vn 0.4742 -0.0772 0.8770
vn 0.5970 -0.3548 0.7195
vn 0.9757 -0.0364 0.2159
vn 0.4957 -0.5412 -0.6792
vn 0.1967 -0.9741 -0.1117
vn 0.5718 -0.7988 -0.1867
vn -0.3574 -0.6546 -0.6662
vn -0.1413 -0.9636 -0.2269
vn 0.0828 -0.9060 -0.4152
vn -0.9166 -0.2046 -0.3434
vn -0.5377 -0.7744 -0.3333
vn -0.5081 -0.8095 -0.2943
vn -0.6834 -0.4681 0.5603
vn -0.6367 -0.7062 0.3097
vn -0.8530 -0.5186 0.0581
vn 0.8938 0.1357 0.4273
vn 0.7755 -0.6203 -0.1172
vn 0.8566 -0.4512 0.2503
vn 0.0594 -0.9587 0.2783
vn -0.4879 -0.7757 -0.4003
vn -0.3765 -0.9138 0.1524
vn 0.0835 -0.9711 -0.2237
vn 0.0465 -0.9963 -0.0729
vn 0.0312 -0.9967 -0.0751
vn 0.3742 -0.6672 -0.6440
vn 0.0394 -0.5978 -0.8007
vn -0.3430 -0.9350 -0.0905
vn 0.1518 -0.9855 0.0752
vn 0.4438 -0.8686 -0.2205
vn -0.0041 -0.9451 -0.3267
vn 0.0771 -0.8337 0.5468
vn 0.5950 -0.7348 -0.3256
vn 0.1029 -0.8079 -0.5803
usemtl None
s off
f 1//1 74//1 43//1
f 2//2 44//2 46//2
f 1//3 43//3 48//3
f 1//4 48//4 50//4
f 1//5 50//5 77//5
f 2//6 46//6 53//6
f 3//7 45//7 55//7
f 4//8 49//8 57//8
f 5//9 51//9 59//9
f 6//10 52//10 61//10
f 2//11 53//11 86//11
f 3//12 55//12 88//12
f 4//13 57//13 90//13
f 5//14 59//14 92//14
f 6//15 61//15 84//15
f 7//16 63//16 68//16
f 8//17 64//17 70//17
f 9//18 65//18 71//18
f 10//19 66//19 72//19
f 11//20 67//20 99//20
f 39//21 103//21 69//21
f 39//22 104//22 103//22
f 37//23 97//23 105//23
f 42//24 106//24 102//24
f 42//25 107//25 106//25
f 36//26 96//26 108//26
f 41//27 109//27 101//27
f 41//28 110//28 109//28
f 35//29 95//29 111//29
f 40//30 112//30 100//30
f 40//31 113//31 112//31
f 34//32 94//32 114//32
f 38//33 115//33 98//33
f 38//34 116//34 115//34
f 33//35 93//35 117//35
f 24//36 118//36 54//36
f 24//37 119//37 118//37
f 31//38 91//38 120//38
f 32//39 121//39 62//39
f 32//40 122//40 121//40
f 29//41 89//41 123//41
f 30//42 124//42 60//42
f 30//43 125//43 124//43
f 27//44 87//44 126//44
f 28//45 127//45 58//45
f 28//46 128//46 127//46
f 25//47 85//47 129//47
f 26//48 130//48 56//48
f 26//49 131//49 130//49
f 23//50 83//50 132//50
f 31//51 133//51 91//51
f 31//52 134//52 133//52
f 22//53 82//53 135//53
f 29//54 136//54 89//54
f 29//55 137//55 136//55
f 21//56 81//56 138//56
f 27//57 139//57 87//57
f 27//58 140//58 139//58
f 19//59 79//59 141//59
f 25//60 142//60 85//60
f 25//61 143//61 142//61
f 15//62 75//62 144//62
f 23//63 145//63 83//63
f 23//64 146//64 145//64
f 16//65 76//65 147//65
f 17//66 148//66 47//66
f 17//67 149//67 148//67
f 20//68 80//68 150//68
f 20//69 151//69 80//69
f 20//70 152//70 151//70
f 18//71 78//71 153//71
f 18//72 154//72 78//72
f 18//73 155//73 154//73
f 13//74 73//74 156//74
f 16//75 157//75 76//75
f 16//76 158//76 157//76
f 14//77 74//77 159//77
f 13//78 160//78 73//78
f 13//79 161//79 160//79
f 14//80 44//80 162//80
f 162//81 75//81 15//81
f 162//82 44//82 75//82
f 44//83 2//83 75//83
f 160//84 162//84 15//84
f 160//85 161//85 162//85
f 161//86 14//86 162//86
f 73//87 45//87 3//87
f 73//88 160//88 45//88
f 160//89 15//89 45//89
f 159//90 77//90 17//90
f 159//91 74//91 77//91
f 74//92 1//92 77//92
f 157//93 159//93 17//93
f 157//94 158//94 159//94
f 158//95 14//95 159//95
f 76//96 47//96 6//96
f 76//97 157//97 47//97
f 157//98 17//98 47//98
f 156//99 79//99 19//99
f 156//100 73//100 79//100
f 73//101 3//101 79//101
f 154//102 156//102 19//102
f 154//103 155//103 156//103
f 155//104 13//104 156//104
f 78//105 49//105 4//105
f 78//106 154//106 49//106
f 154//107 19//107 49//107
f 153//108 81//108 21//108
f 153//109 78//109 81//109
f 78//110 4//110 81//110
f 151//111 153//111 21//111
f 151//112 152//112 153//112
f 152//113 18//113 153//113
f 80//114 51//114 5//114
f 80//115 151//115 51//115
f 151//116 21//116 51//116
f 150//117 82//117 22//117
f 150//118 80//118 82//118
f 80//119 5//119 82//119
f 148//120 150//120 22//120
f 148//121 149//121 150//121
f 149//122 20//122 150//122
f 47//123 52//123 6//123
f 47//124 148//124 52//124
f 148//125 22//125 52//125
f 147//126 84//126 24//126
f 147//127 76//127 84//127
f 76//128 6//128 84//128
f 145//129 147//129 24//129
f 145//130 146//130 147//130
f 146//131 16//131 147//131
f 83//132 54//132 11//132
f 83//133 145//133 54//133
f 145//134 24//134 54//134
f 144//135 86//135 26//135
f 144//136 75//136 86//136
f 75//137 2//137 86//137
f 142//138 144//138 26//138
f 142//139 143//139 144//139
f 143//140 15//140 144//140
f 85//141 56//141 7//141
f 85//142 142//142 56//142
f 142//143 26//143 56//143
f 141//144 88//144 28//144
f 141//145 79//145 88//145
f 79//146 3//146 88//146
f 139//147 141//147 28//147
f 139//148 140//148 141//148
f 140//149 19//149 141//149
f 87//150 58//150 8//150
f 87//151 139//151 58//151
f 139//152 28//152 58//152
f 138//153 90//153 30//153
f 138//154 81//154 90//154
f 81//155 4//155 90//155
f 136//156 138//156 30//156
f 136//157 137//157 138//157
f 137//158 21//158 138//158
f 89//159 60//159 9//159
f 89//160 136//160 60//160
f 136//161 30//161 60//161
f 135//162 92//162 32//162
f 135//163 82//163 92//163
f 82//164 5//164 92//164
f 133//165 135//165 32//165
f 133//166 134//166 135//166
f 134//167 22//167 135//167
f 91//168 62//168 10//168
f 91//169 133//169 62//169
f 133//170 32//170 62//170
f 132//171 93//171 33//171
f 132//172 83//172 93//172
f 83//173 11//173 93//173
f 130//174 132//174 33//174
f 130//175 131//175 132//175
f 131//176 23//176 132//176
f 56//177 63//177 7//177
f 56//178 130//178 63//178
f 130//179 33//179 63//179
f 129//180 94//180 34//180
f 129//181 85//181 94//181
f 85//182 7//182 94//182
f 127//183 129//183 34//183
f 127//184 128//184 129//184
f 128//185 25//185 129//185
f 58//186 64//186 8//186
f 58//187 127//187 64//187
f 127//188 34//188 64//188
f 126//189 95//189 35//189
f 126//190 87//190 95//190
f 87//191 8//191 95//191
f 124//192 126//192 35//192
f 124//193 125//193 126//193
f 125//194 27//194 126//194
f 60//195 65//195 9//195
f 60//196 124//196 65//196
f 124//197 35//197 65//197
f 123//198 96//198 36//198
f 123//199 89//199 96//199
f 89//200 9//200 96//200
f 121//201 123//201 36//201
f 121//202 122//202 123//202
f 122//203 29//203 123//203
f 62//204 66//204 10//204
f 62//205 121//205 66//205
f 121//206 36//206 66//206
f 120//207 97//207 37//207
f 120//208 91//208 97//208
f 91//209 10//209 97//209
f 118//210 120//210 37//210
f 118//211 119//211 120//211
f 119//212 31//212 120//212
f 54//213 67//213 11//213
f 54//214 118//214 67//214
f 118//215 37//215 67//215
f 117//216 99//216 39//216
f 117//217 93//217 99//217
f 93//218 11//218 99//218
f 115//219 117//219 39//219
f 115//220 116//220 117//220
f 116//221 33//221 117//221
f 98//222 69//222 12//222
f 98//223 115//223 69//223
f 115//224 39//224 69//224
f 114//225 68//225 38//225
f 114//226 94//226 68//226
f 94//227 7//227 68//227
f 112//228 114//228 38//228
f 112//229 113//229 114//229
f 113//230 34//230 114//230
f 100//231 98//231 12//231
f 100//232 112//232 98//232
f 112//233 38//233 98//233
f 111//234 70//234 40//234
f 111//235 95//235 70//235
f 95//236 8//236 70//236
f 109//237 111//237 40//237
f 109//238 110//238 111//238
f 110//239 35//239 111//239
f 101//240 100//240 12//240
f 101//241 109//241 100//241
f 109//242 40//242 100//242
f 108//243 71//243 41//243
f 108//244 96//244 71//244
f 96//245 9//245 71//245
f 106//246 108//246 41//246
f 106//247 107//247 108//247
f 107//248 36//248 108//248
f 102//249 101//249 12//249
f 102//250 106//250 101//250
f 106//251 41//251 101//251
f 105//252 72//252 42//252
f 105//253 97//253 72//253
f 97//254 10//254 72//254
f 103//255 105//255 42//255
f 103//256 104//256 105//256
f 104//257 37//257 105//257
f 69//258 102//258 12//258
f 69//259 103//259 102//259
f 103//260 42//260 102//260
f 99//261 104//261 39//261
f 99//262 67//262 104//262
f 67//263 37//263 104//263
f 72//264 107//264 42//264
f 72//265 66//265 107//265
f 66//266 36//266 107//266
f 71//267 110//267 41//267
f 71//268 65//268 110//268
f 65//269 35//269 110//269
f 70//270 113//270 40//270
f 70//271 64//271 113//271
f 64//272 34//272 113//272
f 68//273 116//273 38//273
f 68//274 63//274 116//274
f 63//275 33//275 116//275
f 84//276 119//276 24//276
f 84//277 61//277 119//277
f 61//278 31//278 119//278
f 92//279 122//279 32//279
f 92//280 59//280 122//280
f 59//281 29//281 122//281
f 90//282 125//282 30//282
f 90//283 57//283 125//283
f 57//284 27//284 125//284
f 88//285 128//285 28//285
f 88//286 55//286 128//286
f 55//287 25//287 128//287
f 86//288 131//288 26//288
f 86//289 53//289 131//289
f 53//290 23//290 131//290
f 61//291 134//291 31//291
f 61//292 52//292 134//292
f 52//293 22//293 134//293
f 59//294 137//294 29//294
f 59//295 51//295 137//295
f 51//296 21//296 137//296
f 57//297 140//297 27//297
f 57//298 49//298 140//298
f 49//299 19//299 140//299
f 55//300 143//300 25//300
f 55//301 45//301 143//301
f 45//302 15//302 143//302
f 53//303 146//303 23//303
f 53//304 46//304 146//304
f 46//305 16//305 146//305
f 77//306 149//306 17//306
f 77//307 50//307 149//307
f 50//308 20//308 149//308
f 50//309 152//309 20//309
f 50//310 48//310 152//310
f 48//311 18//311 152//311
f 48//312 155//312 18//312
f 48//313 43//313 155//313
f 43//314 13//314 155//314
f 46//315 158//315 16//315
f 46//316 44//316 158//316
f 44//317 14//317 158//317
f 43//318 161//318 13//318
f 43//319 74//319 161//319
f 74//320 14//320 161//320
